<?xml version="1.0" encoding="utf-8"?>
<!DOCTYPE svg PUBLIC "-//W3C//DTD SVG 20010904//EN" "http://www.w3.org/TR/2001/REC-SVG-20010904/DTD/svg10.dtd">
<svg version="1.0" xmlns="http://www.w3.org/2000/svg" width="237px" height="232px" viewBox="0 0 237 232" preserveAspectRatio="xMidYMid meet">
 <g fill="#eb3339">
  <path d="M3.4 228.6 c-0.3 -0.9 1.5 -8.7 4.1 -17.3 5.9 -20 6 -20.3 8.6 -29.5 l2.2 -7.8 -3.6 -7.3 c-12.5 -25.5 -15.3 -55.8 -7.6 -82.2 2.2 -7.9 2.3 -8 7.3 -18.9 13.4 -28.9 41.4 -51.8 74.1 -60.6 10.4 -2.8 32.7 -3.8 45.8 -2 22.3 3 47.8 16.2 64.4 33.2 16.1 16.6 28 39.7 31.2 60.5 2.4 15.4 1 36.8 -3.3 52.3 -2.3 8.2 -11.1 25.3 -17.4 33.9 -17.4 23.6 -43.6 39.8 -73.1 45.2 -23.8 4.3 -48.2 0.6 -70.7 -10.8 l-7.1 -3.5 -11.9 3.5 c-10.9 3.3 -36.5 11 -40.7 12.3 -1 0.3 -1.9 -0.1 -2.3 -1z"/>
 </g>
 <g fill="#fdf9f9">
  <path d="M4 227.3 c0 -0.5 3.6 -12.5 7.9 -26.8 l7.8 -26 -3.7 -7.5 c-21.6 -43.5 -13.6 -95.8 19.9 -129.9 21.9 -22.3 49.7 -34.1 80.4 -34.1 31 0 56.6 10.5 79.4 32.3 22.6 21.7 34.3 49.3 34.3 80.7 0 42.9 -24.7 81.9 -64 101.2 -15.8 7.7 -29.8 10.8 -49 10.8 -19.9 0 -31.9 -2.6 -49.1 -10.7 l-9.7 -4.5 -15.8 4.7 c-8.8 2.6 -18 5.3 -20.6 6.1 -15.4 4.5 -17.8 5 -17.8 3.7z m135.4 -15.3 c28.7 -6.7 53.2 -26.1 66.5 -52.6 10.6 -21.3 13.2 -46.5 7.1 -69.4 -2.8 -10.2 -11.9 -28.1 -18.3 -36 -21.2 -26 -55.5 -40.5 -87.6 -36.9 -22.8 2.5 -42.6 11.6 -58.4 26.8 -9.3 8.9 -15.8 18 -21.2 29.3 -6.3 13.4 -8.5 22.7 -9.2 38.5 -0.9 20.4 3.1 37.3 12.6 53.6 l4 6.7 -5 16.4 c-5.5 18.3 -5.7 20 -3.1 19.2 0.9 -0.2 8.8 -2.6 17.5 -5.1 l15.7 -4.7 9.8 5 c9.1 4.6 17.3 7.7 26.7 10 2.2 0.6 10.8 1 19.2 1.1 11.9 0.1 17.1 -0.3 23.7 -1.9z"/>
  <path d="M79.5 189 c-3.4 -1.4 -9.7 -8.6 -9.3 -10.6 0.6 -3.4 4.1 -2.7 8.3 1.6 2.1 2.2 4.7 4 5.6 4 2.3 0 8.9 -6.5 8.9 -8.7 0 -2 -32.8 -35.3 -34.8 -35.3 -1.9 0 -9.2 7.1 -9.2 8.9 0 0.9 1.8 3.5 4 5.6 4.4 4.3 5 7.8 1.4 8.3 -3.3 0.5 -11.4 -9 -11.4 -13.3 0 -7 10 -16.2 16.4 -15.2 2.9 0.5 3.9 0 7.6 -3.8 l4.3 -4.4 -1.6 -3.8 c-2.1 -4.6 -1 -9.8 2.5 -12.5 1.8 -1.3 2.2 -2.4 1.9 -6.3 -0.3 -5.1 1.6 -8.9 4.9 -10 1.3 -0.4 2 -1.5 2 -3 0 -4.1 1.9 -7.5 5 -9.3 2.4 -1.4 3 -2.4 3 -5 0 -4.7 4.6 -9.2 9.3 -9.2 1.9 0 4.8 -0.5 6.5 -1.1 2.4 -0.8 5.5 -0.6 13.9 0.9 5.9 1.1 12.5 2.3 14.7 2.7 5 0.8 8.4 4.3 9.2 9.4 0.4 2.7 1.3 4.2 2.5 4.6 2.3 0.8 4.9 5.5 4.9 9 0 1.7 0.8 2.9 2.3 3.6 2.9 1.3 5.7 5.9 5.7 9.3 0 1.4 0.4 2.6 0.9 2.6 1.7 0 6 5.2 6.6 8 0.4 1.9 0 4.2 -1.1 6.5 l-1.7 3.7 4.1 4.1 c3.7 3.7 4.5 4.1 8.6 3.8 4.2 -0.2 5 0.2 9.7 4.6 6.1 5.7 7.4 8.4 5.9 12.7 -1 3.2 -32.5 35.4 -36.7 37.5 -4.6 2.3 -7.4 1.4 -13.6 -4.9 -5.7 -5.7 -5.9 -6.1 -5.4 -10 0.5 -3.8 0.2 -4.4 -4.6 -9.5 l-5.2 -5.4 -7.7 -0.7 -7.7 -0.6 -5.9 5.6 -5.9 5.6 0.5 5 c0.5 5 0.4 5.1 -5 10.5 -5.7 5.7 -9 6.8 -14.3 4.5z m88.7 -21.7 c10.7 -10.6 16.8 -17.5 16.8 -18.8 0 -2.3 -6.3 -8.5 -8.7 -8.5 -0.9 0 -9 7.3 -18 16.2 -18.4 18.3 -18.9 19.3 -12.8 24.7 2 1.7 4.1 3.1 4.8 3.1 0.6 0 8.7 -7.5 17.9 -16.7z m-67.4 -8.5 l6.3 -6.3 9.7 -0.3 c8.5 -0.3 10.1 -0.7 13 -2.9 1.8 -1.4 4 -2.2 4.7 -1.9 2.1 0.8 1.8 4 -0.5 6.1 -1.1 1 -2 2.3 -2 2.9 0 1.4 7.1 8.6 8.5 8.6 0.6 0 6.9 -5.9 14 -13 l13 -13 -5 -4.5 c-3.2 -3 -5.2 -4.2 -5.9 -3.5 -0.6 0.6 -2 1 -3.3 1 -3.6 0 -2.8 -3.1 1.7 -7.5 3.3 -3.2 4 -4.6 3.8 -7 -0.4 -3.9 -4 -4.6 -7.3 -1.5 -1.3 1.2 -3.1 2 -4.1 1.8 -3.2 -0.6 -2.7 -3.7 1 -7.8 4.1 -4.5 4.2 -5.2 2 -7.4 -2.2 -2.2 -3.8 -2 -7.3 1 -6.1 5.1 -8.5 0.1 -2.6 -5.6 3.6 -3.5 4.4 -6.7 2.3 -8.8 -1.8 -1.8 -3.3 -1.5 -6.7 1.4 -6.4 5.4 -9.6 0.5 -3.6 -5.6 4.3 -4.4 4.6 -8.3 0.6 -8.8 -1.7 -0.3 -3.6 0.9 -7.2 4.4 -4 3.9 -4.6 5 -3.9 6.9 0.5 1.3 0.6 3.3 0.3 4.6 -0.8 3.2 -5.2 7.9 -7.4 7.9 -1 0 -2.5 1.6 -3.6 3.8 -1.1 2.3 -3.2 4.4 -5.5 5.5 -2.1 1 -3.8 2.5 -3.8 3.2 0 2.2 -4.8 7.2 -7.5 7.9 -1.4 0.4 -2.5 1.3 -2.5 2.2 0 0.9 -1.6 3.2 -3.5 5.1 -3.3 3.3 -3.9 3.5 -8.1 3 -4.2 -0.4 -5 -0.2 -8.5 3 -2.2 2 -3.9 4.2 -3.9 5.1 0 1.3 24.5 26 26 26.2 0.2 0 3.3 -2.8 6.8 -6.2z m-17.4 -34.4 c4.1 -1.6 -0.2 -10.4 -5 -10.4 -5 0 -5.1 6 -0.2 9.4 2.5 1.8 3 1.9 5.2 1z m12.2 -12.6 c0.9 -3 -9.1 -13 -12.6 -12.6 -1.8 0.2 -2.6 1 -2.8 2.9 -0.2 2 0.9 3.7 5.1 7.6 5.8 5.5 9 6.1 10.3 2.1z m10.2 -10.7 c0.3 -1.8 -1.1 -3.9 -5.9 -8.7 -6.3 -6.3 -9.2 -7.7 -11.7 -5.2 -2.1 2.1 -1.3 3.9 5 10.4 5.3 5.6 6.6 6.5 9.3 6.2 2.3 -0.2 3.1 -0.9 3.3 -2.7z m10 -10.3 c0.3 -2.2 -0.3 -2.9 -3.2 -4.3 -3.8 -1.8 -9.1 -7.2 -10.8 -11.1 -1.2 -2.6 -3.7 -3.1 -5.6 -1.2 -2.4 2.4 -1 5 6.6 12.3 6 5.9 8.3 7.5 10.2 7.3 1.9 -0.2 2.6 -1 2.8 -3z m3.7 -12.8 c2.4 -2.5 2.7 -3.3 1.5 -4 -1.6 -1 -12.9 -2.4 -13.6 -1.7 -0.8 0.7 6.6 8.7 8 8.7 0.7 0 2.5 -1.4 4.1 -3z"/>
  <path d="M140 142.5 c-1.1 -1.3 -1.1 -1.9 0.3 -3.2 2.1 -2.1 4.9 -0.9 4.5 1.9 -0.4 2.8 -3 3.5 -4.8 1.3z"/>
  <path d="M60.4 170.5 c-0.4 -0.9 0 -2.3 0.8 -3.1 2 -2 5 -0.7 4.6 2 -0.4 2.6 -4.5 3.5 -5.4 1.1z"/>
  <path d="M114.4 58.7 c-0.2 -0.8 -0.4 -4.7 -0.2 -8.8 0.3 -7.1 0.4 -7.4 2.8 -7.4 2.5 0 2.5 0.1 2.5 8.5 0 8.1 -0.1 8.5 -2.3 8.8 -1.2 0.2 -2.4 -0.3 -2.8 -1.1z"/>
  <path d="M72.7 53.2 c-4.4 -4.4 -5.8 -6.5 -5.5 -8.2 0.5 -4 2.6 -3.3 9.3 3.1 4.6 4.4 6.5 6.9 6.3 8.4 -0.6 3.9 -4 2.8 -10.1 -3.3z"/>
  <path d="M151.7 58.3 c-1.7 -1.7 -0.2 -4.3 5.6 -10.1 4.3 -4.3 6.8 -6.1 7.9 -5.7 3.6 1.4 2.7 3.6 -3.9 10 -6.5 6.3 -8.2 7.3 -9.6 5.8z"/>
 </g>
</svg>